<?xml version="1.0" encoding="iso-8859-1"?>
<svg version="1.1" id="Capa_1" xmlns="http://www.w3.org/2000/svg" xmlns:xlink="http://www.w3.org/1999/xlink" x="0px" y="0px"
	 viewBox="0 0 512 512" style="enable-background:new 0 0 512 512;" xml:space="preserve">
<path d="M480,96H128c-17.673,0-32,14.327-32,32v352c0,17.673,14.327,32,32,32h352c17.673,0,32-14.327,32-32V128
	C512,110.327,497.673,96,480,96z M480,480H128V128h352V480z"/>
<path d="M32,32h352v32h32V32c0-17.673-14.327-32-32-32H32C14.327,0,0,14.327,0,32v352c0,17.673,14.327,32,32,32h32v-32H32V32z"/>
</svg>
