<?xml version="1.0" encoding="iso-8859-1"?>
<svg version="1.1" id="Capa_1" xmlns="http://www.w3.org/2000/svg" xmlns:xlink="http://www.w3.org/1999/xlink" x="0px" y="0px"
	 viewBox="0 0 512 512" style="enable-background:new 0 0 512 512;" xml:space="preserve">
<path d="M408.973,142.689C368.113,101.829,313.785,79.326,256,79.326h-31.717l50.907-51.032L246.826,0L147.68,99.389
	l97.852,99.488l28.563-28.093l-50.551-51.396H256c97.198,0,176.275,79.076,176.275,176.275S353.198,471.938,256,471.938
	S79.725,392.861,79.725,295.659v-20.031l-40.062,0.004v20.031c0,57.786,22.503,112.113,63.364,152.973
	C143.887,489.497,198.215,512,256,512c57.785,0,112.113-22.503,152.973-63.364c40.861-40.861,63.364-95.188,63.364-152.973
	S449.834,183.55,408.973,142.689z"/>
</svg>
