<?xml version="1.0" encoding="UTF-8"?> <svg xmlns="http://www.w3.org/2000/svg" width="592" height="166" viewBox="0 0 592 166" fill="none"> <g clip-path="url(#clip0_1_36)"> <path d="M112.636 0H53.013C23.7347 0 0 23.7849 0 53.1252V112.875C0 142.215 23.7347 166 53.013 166H112.636C141.915 166 165.649 142.215 165.649 112.875V53.1252C165.649 23.7849 141.915 0 112.636 0Z" fill="#13171A"></path> <path d="M49.7506 41.2527C52.0701 39.1515 54.781 37.5302 57.7276 36.4819C60.6742 35.4337 63.7984 34.9791 66.9208 35.1443V43.0163C64.8694 42.9036 62.8175 43.2288 60.9009 43.9704C58.9843 44.712 57.2467 45.853 55.8031 47.318C53.0226 51.2305 51.6871 55.9907 52.0257 60.7821V105.046C51.6871 109.837 53.0226 114.597 55.8031 118.51C57.2351 120.086 58.9982 121.324 60.9652 122.135C62.9323 122.945 65.0543 123.309 67.1784 123.199V130.899C64.053 131.058 60.9271 130.597 57.9804 129.541C55.0336 128.485 52.3243 126.856 50.0082 124.747C47.725 122.181 45.988 119.175 44.903 115.914C43.8181 112.652 43.4081 109.203 43.6981 105.777V60.2229C43.3784 56.8152 43.7498 53.378 44.7899 50.1179C45.8301 46.8579 47.5175 43.8423 49.7506 41.2527Z" fill="#7E858B"></path> <path d="M77.2659 41.2527C81.9556 37.0171 88.1311 34.8202 94.4361 35.1443V43.0163C92.3782 42.903 90.3196 43.2277 88.396 43.9691C86.4723 44.7106 84.7272 45.8519 83.2755 47.318C80.5101 51.2362 79.1899 55.9958 79.5409 60.7821V105.046C79.1899 109.832 80.5101 114.592 83.2755 118.51C84.7112 120.081 86.4749 121.316 88.441 122.126C90.4071 122.937 92.5273 123.303 94.6507 123.199V130.899C91.4904 131.082 88.3254 130.633 85.3404 129.577C82.3555 128.52 79.6105 126.879 77.2659 124.747C74.9904 122.178 73.2611 119.17 72.1837 115.909C71.1062 112.647 70.703 109.2 70.9988 105.777V60.2229C70.7055 56.8002 71.1099 53.3536 72.1873 50.0924C73.2646 46.8313 74.9925 43.8238 77.2659 41.2527Z" fill="#F7F8F9"></path> <path d="M104.867 41.2527C109.559 37.0212 115.733 34.8249 122.037 35.1443V43.0163C119.972 42.8996 117.906 43.2225 115.975 43.964C114.044 44.7055 112.292 45.8485 110.834 47.318C108.105 51.311 106.86 56.1361 107.314 60.9541V105.046C106.963 109.832 108.283 114.592 111.048 118.51C112.486 120.079 114.25 121.312 116.215 122.122C118.181 122.932 120.3 123.3 122.423 123.199V130.899C116.114 131.202 109.941 128.99 105.253 124.747C102.94 122.193 101.169 119.194 100.048 115.933C98.9263 112.672 98.4775 109.217 98.7286 105.777V60.2229C98.428 56.8098 98.8166 53.371 99.8712 50.1117C100.926 46.8524 102.625 43.8395 104.867 41.2527Z" fill="#7E858B"></path> <path d="M254.977 66.5463C251.148 63.7368 246.448 62.3802 241.713 62.7178C237.737 62.6024 233.831 63.796 230.596 66.1161C227.484 68.4151 225.039 71.5035 223.513 75.0635C221.873 78.8348 221.04 82.9084 221.066 87.022C220.858 93.2355 222.833 99.325 226.647 104.229C228.522 106.591 230.935 108.468 233.683 109.703C236.432 110.938 239.436 111.494 242.443 111.326C246.582 111.452 250.66 110.295 254.119 108.014C257.307 105.751 259.565 102.402 260.472 98.5934H272.448C271.806 103.052 270.065 107.281 267.383 110.896C264.572 114.593 260.903 117.546 256.694 119.499C251.946 121.688 246.767 122.776 241.542 122.683C235.742 122.691 230.074 120.952 225.273 117.693C220.26 114.362 216.182 109.801 213.426 104.444C210.619 99.1437 209.145 93.2372 209.133 87.2371C209.099 81.067 210.573 74.9825 213.426 69.5144C216.151 64.2686 220.189 59.8218 225.144 56.6095C229.978 53.3558 235.676 51.6323 241.499 51.6626C249.609 51.0785 257.62 53.739 263.777 59.0614C268.794 63.8485 271.854 70.3343 272.362 77.2573H260.3C259.997 73.1254 258.085 69.2784 254.977 66.5463Z" fill="#13171A"></path> <path d="M286.27 18.325H298.246V96.0985C297.813 100.051 298.592 104.042 300.478 107.541C301.496 108.712 302.78 109.62 304.222 110.189C305.664 110.758 307.222 110.971 308.763 110.81C311.081 110.726 313.39 110.482 315.674 110.079V121.048C312.499 121.727 309.262 122.073 306.016 122.08C303.355 122.255 300.686 121.888 298.17 121.001C295.654 120.113 293.344 118.725 291.378 116.918C287.541 112.243 285.65 106.265 286.098 100.228L286.27 18.325Z" fill="#13171A"></path> <path d="M377.744 121.005V109.434C375.774 113.436 372.711 116.796 368.913 119.126C365.114 121.456 360.735 122.659 356.282 122.597C350.188 122.701 344.204 120.962 339.111 117.607C334.075 114.29 329.98 109.726 327.221 104.358C324.358 98.9709 322.882 92.953 322.929 86.85C322.847 80.6333 324.323 74.4953 327.221 68.9982C329.942 63.6493 334.049 59.1325 339.111 55.9212C344.162 52.7427 350.017 51.0853 355.981 51.1464C360.508 51.0455 364.968 52.2536 368.827 54.6261C372.687 56.9986 375.783 60.4351 377.744 64.5245V53.0391H389.592V121.005H377.744ZM372.207 104.444C376.062 99.5647 378.029 93.4541 377.744 87.2371C378.039 80.9132 376.076 74.691 372.207 69.6865C370.267 67.3825 367.817 65.5644 365.052 64.377C362.288 63.1895 359.284 62.6656 356.282 62.8469C353.311 62.7047 350.346 63.2385 347.61 64.4081C344.875 65.5777 342.439 67.3529 340.485 69.6004C336.445 74.3965 334.347 80.5361 334.604 86.807C334.415 93.0531 336.472 99.1594 340.399 104.013C342.42 106.181 344.859 107.915 347.567 109.113C350.275 110.311 353.196 110.947 356.156 110.983C359.116 111.019 362.053 110.455 364.789 109.323C367.525 108.192 370.005 106.518 372.078 104.401L372.207 104.444Z" fill="#13171A"></path> <path d="M405.345 121.005V53.0391H417.322V65.1697C419.181 61.2188 422.055 57.834 425.649 55.362C429.66 52.9576 434.288 51.7906 438.956 52.0067C440.765 52.0108 442.561 52.3012 444.279 52.8671V64.7396C442.398 64.2666 440.466 64.0211 438.527 64.0083C424.361 64.0083 417.322 72.9557 417.322 90.7645V120.876L405.345 121.005Z" fill="#13171A"></path> <path d="M455.01 33.6388C454.16 32.8155 453.488 31.8251 453.038 30.7295C452.587 29.634 452.367 28.457 452.392 27.2724C452.373 26.0949 452.596 24.9261 453.046 23.8384C453.497 22.7507 454.165 21.7673 455.01 20.949C455.832 20.0967 456.82 19.4238 457.913 18.9722C459.006 18.5207 460.181 18.3003 461.363 18.325C462.534 18.2937 463.697 18.5115 464.777 18.9638C465.858 19.4161 466.83 20.0926 467.63 20.949C468.46 21.7746 469.112 22.7613 469.548 23.8487C469.983 24.936 470.193 26.1011 470.163 27.2724C470.199 28.4508 469.992 29.624 469.557 30.7192C469.121 31.8144 468.465 32.8081 467.63 33.6388C466.83 34.4951 465.858 35.1717 464.777 35.624C463.697 36.0763 462.534 36.294 461.363 36.2628C460.181 36.2874 459.006 36.067 457.913 35.6155C456.82 35.164 455.832 34.491 455.01 33.6388ZM455.311 52.8671H467.287V121.005H455.311V52.8671Z" fill="#13171A"></path> <path d="M478.19 53.0391H481.238C482.612 53.2059 484.007 53.0731 485.325 52.6499C486.644 52.2267 487.856 51.5231 488.878 50.5872C490.349 48.5258 491.062 46.0179 490.896 43.4895V30.8857H501.842V53.0391H518.583V63.8792H501.842V96.0985C501.484 100.032 502.338 103.98 504.289 107.412C505.386 108.559 506.729 109.442 508.216 109.993C509.703 110.544 511.296 110.75 512.874 110.595C515.534 110.525 518.187 110.28 520.815 109.864V121.005C517.48 121.553 514.107 121.84 510.727 121.865C507.864 122.106 504.981 121.748 502.262 120.815C499.543 119.883 497.047 118.394 494.931 116.445C491.044 111.45 489.202 105.159 489.78 98.8515V63.8792H478.19V53.0391Z" fill="#13171A"></path> <path d="M526.095 52.8671H538.371L558.847 106.078L579.494 52.8671H591.9L551.807 155.676H539.702L552.966 121.005L526.095 52.8671Z" fill="#13171A"></path> </g> <defs> <clipPath id="clip0_1_36"> <rect width="591.728" height="166" fill="white"></rect> </clipPath> </defs> </svg> 